# xmcd
#
# Track frame offsets: 
#        150
#        17117
#        36339
#        49021
#        61856
#        77723
#        97327
#        111936
#        130847
#        149431
#        163060
#        180621
#        196530
#        224500
#
# Disc length: 4440 seconds
#
# Revision: 0
# Processed by: cddbd v1.5.1PL2 Copyright (c) Steve Scherf et al.
# Submitted via: ExactAudioCopy v0.95b3
#
DISCID=c911560e
DTITLE=The Radios - Essential
DYEAR=2005
DGENRE=Blues
TTITLE0=She Goes Nana
TTITLE1=Gimme Love
TTITLE2=I'm Into Folk
TTITLE3=Swimming in the Pool
TTITLE4=Lucky Day
TTITLE5=Non, Non rien n'a changé
TTITLE6=Tears in the Morning
TTITLE7=Dreaming Wild
TTITLE8=Move it Right Now
TTITLE9=Walking the Thin Line
TTITLE10=Teardrops
TTITLE11=She's my lover (She's my friend)
TTITLE12=S.O.S. to an Angel
TTITLE13=CCRadio
EXTD=
EXTT0=
EXTT1=
EXTT2=
EXTT3=
EXTT4=
EXTT5=
EXTT6=
EXTT7=
EXTT8=
EXTT9=
EXTT10=
EXTT11=
EXTT12=
EXTT13=
PLAYORDER=
